<?xml version="1.0" encoding="utf-8"?>
<!-- Svg Vector Icons : http://www.onlinewebfonts.com/icon -->
<!DOCTYPE svg PUBLIC "-//W3C//DTD SVG 1.1//EN" "http://www.w3.org/Graphics/SVG/1.1/DTD/svg11.dtd">
<svg version="1.1" xmlns="http://www.w3.org/2000/svg" xmlns:xlink="http://www.w3.org/1999/xlink" x="0px" y="0px" viewBox="0 0 1000 1000" enable-background="new 0 0 1000 1000" xml:space="preserve">
<metadata> Svg Vector Icons : http://www.onlinewebfonts.com/icon </metadata>
<g><g transform="translate(0.000000,511.000000) scale(0.100000,-0.100000)"><path d="M4609.8,110v-4900l96.9,94.5l96.9,94.5l96.9-94.5l96.9-94.5V110v4900h-193.9h-193.9V110z"/><path d="M538.6,4622.3v-193.9h133.3c162.4,0,254.4-70.3,254.4-193.9c0-123.6-92.1-193.9-254.4-193.9H538.6v-193.9v-193.9h133.3c162.4,0,254.4-70.3,254.4-193.9c0-123.6-92.1-193.9-254.4-193.9H538.6v-193.9v-193.9h133.3c162.4,0,254.4-70.3,254.4-193.9c0-123.6-92.1-193.9-254.4-193.9H538.6v-193.9V2102h133.3c162.4,0,254.4-70.3,254.4-193.9c0-123.6-92.1-193.9-254.4-193.9H538.6v-193.9v-193.9h133.3c162.4,0,254.4-70.3,254.4-193.9c0-121.2-99.4-193.9-256.9-193.9H538.6V744.9V551h133.3c162.4,0,254.4-70.3,254.4-193.9s-92.1-193.9-254.4-193.9H538.6V-30.5v-193.9h133.3c162.4,0,254.4-70.3,254.4-193.9c0-123.6-92.1-193.9-254.4-193.9H538.6V-806v-193.9h133.3c162.4,0,254.4-70.3,254.4-193.9c0-123.6-92.1-193.9-254.4-193.9H538.6v-193.9v-193.9h133.3c162.4,0,254.4-70.3,254.4-193.9c0-123.6-92.1-193.9-254.4-193.9H538.6V-2357v-193.9h133.3c162.4,0,254.4-70.3,254.4-193.9c0-123.6-92.1-193.9-254.4-193.9H538.6v-193.9v-193.9h133.3c162.4,0,254.4-70.3,254.4-193.8c0-123.6-92.1-193.9-254.4-193.9H538.6v-193.9v-193.9h1841.7h1841.7v2714.1v2714.1h-1454h-1454v1163.2v1163.2h1454h1454v581.6v581.6H2380.4H538.6V4622.3z"/><path d="M5385.3,4237v-584h290.8h290.8V2489.7V1326.5h-290.8h-290.8V-1390v-2716.6l395,9.7c358.7,7.3,402.3,12.1,513.8,65.4c152.7,77.5,300.5,225.4,378,378l58.2,121.2l7.3,3841c4.9,3395.1,0,3853.1-31.5,3967c-53.3,179.3-210.8,365.9-387.7,455.6c-138.1,70.3-152.7,72.7-538,80l-395,9.7V4237z"/><path d="M8639.9,4110.9l-225.4-458h460.4h460.4l-225.4,458c-121.2,252-227.8,460.4-235,460.4C8867.7,4571.4,8761,4363,8639.9,4110.9z"/><path d="M1701.8,2489.7v-775.5H2962h1260.1v775.5v775.5H2962H1701.8V2489.7z"/><path d="M5385.3,2489.7v-775.5h96.9h96.9v775.5v775.5h-96.9h-96.9V2489.7z"/><path d="M8293.3,163.3v-3101.9h193.9h193.9V163.3v3101.9h-193.9h-193.9V163.3z"/><path d="M9068.8,163.3v-3101.9h193.9h193.9V163.3v3101.9h-193.9h-193.9V163.3z"/><path d="M8298.2-3590.4c7.3-286,29.1-341.7,174.5-448.3c60.6-46,101.7-50.9,402.3-50.9c300.5,0,341.7,4.9,402.2,50.9c145.4,106.6,167.2,162.4,174.5,448.3l9.7,264.1h-586.4h-586.5L8298.2-3590.4z"/></g></g>
</svg>