<svg id="Capa_1" enable-background="new 0 0 512.013 512.013" height="512" viewBox="0 0 512.013 512.013" width="512" xmlns="http://www.w3.org/2000/svg"><g><path d="m422.006 421.006c0-21.929-5.186-43.901-15-63.545-9.814-19.629-15-41.602-15-63.53v-37.925c0-81.33-41.682-150.148-97.323-172.383 3.917-6.672 6.323-14.337 6.323-22.617 0-24.814-20.186-45-45-45s-45 20.186-45 45c0 8.28 2.406 15.945 6.323 22.617-55.64 22.234-97.323 91.053-97.323 172.383v37.925c0 21.929-5.186 43.901-15 63.53-9.814 19.644-15 41.616-15 63.545 0 8.291 6.709 15 15 15h302c8.291 0 15-6.709 15-15zm-181-360c0-8.276 6.724-15 15-15s15 6.724 15 15-6.724 15-15 15-15-6.723-15-15z"/><path d="m498.911 225.889c8.218-1.055 14.033-8.569 12.979-16.787-9.39-73.213-42.583-127.471-68.76-160.107-5.186-6.445-14.59-7.456-21.094-2.314-6.46 5.186-7.5 14.634-2.314 21.094 23.789 29.619 53.906 78.853 62.402 145.137 1.014 7.83 8.049 13.97 16.787 12.977z"/><path d="m13.102 225.889c8.725.991 15.771-5.134 16.787-12.979 8.496-66.284 38.613-115.518 62.402-145.137 5.186-6.46 4.146-15.908-2.314-21.094-6.445-5.142-15.864-4.131-21.094 2.314-26.177 32.637-59.37 86.895-68.76 160.107-1.054 8.22 4.761 15.734 12.979 16.789z"/><path d="m438.72 225.831c8.188-1.289 13.784-8.95 12.51-17.139-8.408-53.716-33.56-94.907-53.174-120-5.112-6.504-14.531-7.705-21.064-2.578-6.519 5.112-7.676 14.531-2.578 21.064 17.432 22.28 39.771 58.799 47.168 106.143 1.263 8.075 8.809 13.766 17.138 12.51z"/><path d="m135.021 86.114c-6.548-5.112-15.981-3.97-21.064 2.578-19.614 25.093-44.766 66.284-53.174 120-1.274 8.188 4.321 15.85 12.51 17.139 8.344 1.26 15.877-4.446 17.139-12.51 7.397-47.344 29.736-83.862 47.168-106.143 5.097-6.533 3.94-15.952-2.579-21.064z"/><path d="m298.243 466.006h-84.474c6.213 17.422 22.707 30 42.237 30s36.025-12.577 42.237-30z"/></g></svg>