<?xml version="1.0" encoding="iso-8859-1"?>
<!-- Generator: Adobe Illustrator 19.0.0, SVG Export Plug-In . SVG Version: 6.00 Build 0)  -->
<svg version="1.1" id="Capa_1" xmlns="http://www.w3.org/2000/svg" xmlns:xlink="http://www.w3.org/1999/xlink" x="0px" y="0px"
	 viewBox="0 0 512 512" style="enable-background:new 0 0 512 512;" xml:space="preserve">
<g>
	<g>
		<circle cx="406" cy="15" r="15"/>
	</g>
</g>
<g>
	<g>
		<path d="M262.812,61.191L227.29,43.437L209.521,7.9c-5.098-10.166-21.768-10.166-26.836,0l-17.754,35.537l-35.537,17.754
			c-5.083,2.534-8.291,7.734-8.291,13.418c0,5.684,3.208,10.884,8.291,13.418l35.537,17.754l17.754,35.537
			c5.469,10.97,21.273,11.093,26.836,0l17.769-35.537l35.522-17.754c5.083-2.549,8.291-7.734,8.291-13.418
			C271.103,68.925,267.895,63.74,262.812,61.191z"/>
	</g>
</g>
<g>
	<g>
		<path d="M497,121h-15v-15c0-8.291-6.709-15-15-15c-8.291,0-15,6.709-15,15v15h-15c-8.291,0-15,6.709-15,15s6.709,15,15,15h15v16
			c0,8.291,6.709,15,15,15c8.291,0,15-6.709,15-15v-16h15c8.291,0,15-6.709,15-15S505.291,121,497,121z"/>
	</g>
</g>
<g>
	<g>
		<path d="M489.5,242h-106c-12.426,0-22.5,10.073-22.5,22.5c0,12.426,10.074,22.5,22.5,22.5h106c12.426,0,22.5-10.074,22.5-22.5
			C512,252.073,501.926,242,489.5,242z"/>
	</g>
</g>
<g>
	<g>
		<path d="M489.5,317h-106c-12.426,0-22.5,10.073-22.5,22.5c0,12.426,10.074,22.5,22.5,22.5h106c12.426,0,22.5-10.074,22.5-22.5
			C512,327.073,501.926,317,489.5,317z"/>
	</g>
</g>
<g>
	<g>
		<path d="M489.5,392h-106c-12.426,0-22.5,10.073-22.5,22.5c0,12.426,10.074,22.5,22.5,22.5h106c12.426,0,22.5-10.074,22.5-22.5
			C512,402.073,501.926,392,489.5,392z"/>
	</g>
</g>
<g>
	<g>
		<path d="M459.5,467h-76c-12.426,0-22.5,10.073-22.5,22.5c0,12.426,10.074,22.5,22.5,22.5h76c12.426,0,22.5-10.074,22.5-22.5
			C482,477.073,471.926,467,459.5,467z"/>
	</g>
</g>
<g>
	<g>
		<path d="M166,212h-45v-15c0-8.286-6.716-15-15-15H15c-8.284,0-15,6.714-15,15v300c0,8.284,6.716,15,15,15h91
			c8.284,0,15-6.716,15-15v-15h45c8.284,0,15-6.716,15-15V227C181,218.715,174.284,212,166,212z M85.608,447.606
			c-5.86,5.859-15.356,5.859-21.215,0c-5.858-5.858-5.858-15.355,0-21.213c5.859-5.858,15.355-5.858,21.215,0
			C91.466,432.251,91.466,441.748,85.608,447.606z"/>
	</g>
</g>
<g>
	<g>
		<path d="M361,128.72V91c0-16.538-13.462-30-30-30c-16.538,0-30,13.462-30,30c0,38.687-15.059,91.073-42.422,118.422L226.011,242
			H211v230.999l8.101,8.101C238.9,501.201,265.3,512,293.2,512h43.066c-3.278-6.846-5.266-14.418-5.266-22.5
			c0-14.696,6.11-27.96,15.875-37.5C337.11,442.461,331,429.197,331,414.5c0-14.697,6.11-27.96,15.875-37.5
			C337.11,367.461,331,354.197,331,339.5c0-14.697,6.11-27.96,15.875-37.5C337.11,292.461,331,279.197,331,264.5
			c0-12.984,4.916-24.73,12.755-33.906C355.057,198.194,361,163.323,361,128.72z"/>
	</g>
</g>
<g>
</g>
<g>
</g>
<g>
</g>
<g>
</g>
<g>
</g>
<g>
</g>
<g>
</g>
<g>
</g>
<g>
</g>
<g>
</g>
<g>
</g>
<g>
</g>
<g>
</g>
<g>
</g>
<g>
</g>
</svg>
