<svg id="Capa_1" enable-background="new 0 0 512 512" height="512" viewBox="0 0 512 512" width="512" xmlns="http://www.w3.org/2000/svg"><path d="m256.284 199.225-.284-.546-.284.546c-2.174 4.178-6.185 7.092-10.831 7.868l-.607.102.431.438c3.301 3.359 4.833 8.074 4.137 12.732l-.091.608c2.316-1.155 4.423-1.851 7.244-1.851 2.866 0 4.978.721 7.244 1.851l-.091-.608c-.697-4.658.835-9.373 4.137-12.732l.431-.438-.607-.102c-4.644-.776-8.655-3.69-10.829-7.868z"/><path d="m396.284 199.225-.284-.546-.284.546c-2.174 4.178-6.185 7.092-10.831 7.868l-.607.102.431.438c3.301 3.359 4.833 8.074 4.137 12.732l-.091.608c2.316-1.155 4.423-1.851 7.244-1.851 2.866 0 4.978.721 7.244 1.851l-.091-.608c-.697-4.658.835-9.373 4.137-12.732l.431-.438-.607-.102c-4.644-.776-8.655-3.69-10.829-7.868z"/><path d="m116.284 199.225-.284-.546-.284.546c-2.174 4.178-6.185 7.092-10.831 7.868l-.607.102.431.438c3.301 3.359 4.833 8.074 4.137 12.732l-.091.608c2.316-1.155 4.423-1.851 7.244-1.851 2.866 0 4.978.721 7.244 1.851l-.091-.608c-.697-4.658.835-9.373 4.137-12.732l.431-.438-.607-.102c-4.644-.776-8.655-3.69-10.829-7.868z"/><path d="m467 46.003h-422c-24.813 0-45 20.187-45 45v240c0 24.813 20.187 45 45 45h142.972l55.547 83.32c5.934 8.901 19.032 8.894 24.962 0l55.547-83.32h142.972c24.813 0 45-20.187 45-45v-240c0-24.813-20.187-45-45-45zm-297.682 161.667-15.389 15.657 3.246 21.713c1.791 11.976-10.674 21.052-21.529 15.642l-19.646-9.797-19.647 9.797c-10.835 5.403-23.322-3.647-21.529-15.642l3.246-21.713-15.388-15.657c-8.487-8.637-3.738-23.307 8.223-25.31l21.654-3.622 10.136-19.475c5.59-10.74 21.013-10.757 26.611 0l10.136 19.475 21.654 3.622c11.943 2.001 16.723 16.66 8.222 25.31zm140 0-15.389 15.657 3.246 21.713c1.791 11.976-10.674 21.052-21.529 15.642l-19.646-9.797-19.647 9.797c-10.836 5.403-23.322-3.648-21.529-15.642l3.246-21.713-15.389-15.657c-8.487-8.637-3.738-23.307 8.223-25.31l21.654-3.622 10.136-19.475c5.59-10.74 21.013-10.757 26.611 0l10.136 19.475 21.654 3.622c11.944 2.001 16.724 16.66 8.223 25.31zm140 0-15.389 15.657 3.246 21.713c1.806 12.078-10.757 21.01-21.529 15.642l-19.646-9.797-19.647 9.797c-10.835 5.403-23.322-3.647-21.529-15.642l3.246-21.713-15.389-15.657c-8.487-8.637-3.738-23.307 8.223-25.31l21.654-3.622 10.136-19.475c5.59-10.74 21.013-10.757 26.611 0l10.136 19.475 21.654 3.622c11.944 2.001 16.724 16.66 8.223 25.31z"/></svg>