<?xml version="1.0" encoding="utf-8"?>
<!-- Svg Vector Icons : http://www.onlinewebfonts.com/icon -->
<!DOCTYPE svg PUBLIC "-//W3C//DTD SVG 1.1//EN" "http://www.w3.org/Graphics/SVG/1.1/DTD/svg11.dtd">
<svg version="1.1" xmlns="http://www.w3.org/2000/svg" xmlns:xlink="http://www.w3.org/1999/xlink" x="0px" y="0px" viewBox="0 0 1000 1000" enable-background="new 0 0 1000 1000" xml:space="preserve">
<metadata> Svg Vector Icons : http://www.onlinewebfonts.com/icon </metadata>
<g><g transform="translate(0.000000,511.000000) scale(0.100000,-0.100000)"><path d="M4915.3,4997.7c-1127.9-115.9-2113.1-791.3-2625.8-1796.6c-167.2-329.9-258.6-626.4-332.1-1083.3l-13.4-84.7h-274.2c-236.3,0-278.6-4.5-309.8-40.1c-22.3-22.3-37.9-64.6-37.9-91.4c0-58,728.9-1185.9,815.8-1266.1c60.2-55.7,133.7-64.6,214-26.7c55.7,24.5,844.8,1201.4,860.4,1283.9c4.5,26.8-8.9,64.7-37.9,93.6c-42.3,42.3-73.6,46.8-305.4,46.8h-256.3l15.6,107c53.5,378.9,258.6,851.5,501.5,1165.8c381.2,492.6,858.2,804.7,1489,974.1c189.5,49,258.6,55.7,592.9,55.7c403.5,2.2,543.9-20,876-131.5c499.3-167.2,1029.8-575.1,1319.6-1016.5c93.6-144.9,100.3-149.3,140.4-111.5c24.5,20.1,69.1,89.2,102.5,149.3c51.3,98.1,57.9,136,57.9,334.4c0,198.4-6.7,234.1-60.2,336.6c-164.9,314.3-838.1,769-1406.5,954C5853.7,4977.6,5305.4,5037.8,4915.3,4997.7z"/><path d="M5013.4,3736.1c-26.8-26.7-35.7-80.3-35.7-222.9c0-185,0-187.3-60.2-200.6c-345.5-75.8-566.2-222.9-693.2-465.9c-53.5-100.3-60.2-133.7-60.2-345.5c2.2-198.4,8.9-249.7,53.5-341c109.2-220.7,374.5-399,849.3-561.7c298.7-104.8,378.9-147.1,463.6-245.2c84.7-93.6,102.6-158.3,87-294.2c-22.3-202.8-167.2-305.4-428-305.4c-267.5-2.2-454.7,129.3-492.6,341c-24.5,133.7-31.2,136-332.1,136c-327.7,0-336.6-6.7-314.3-196.2c37.9-329.9,289.8-584,675.4-682.1c71.3-20.1,156-40.1,191.7-46.8c60.2-11.1,60.2-15.6,60.2-180.5c0-249.6,4.5-254.1,251.9-254.1c131.5,0,216.2,8.9,234,26.8c15.6,15.6,26.8,100.3,26.8,218.4V310l111.4,24.5c153.8,35.7,329.9,120.4,436.9,214c182.8,156,278.6,448,231.8,708.8c-66.9,363.3-294.2,563.9-860.4,760.1c-405.7,140.4-546.1,236.3-588.5,396.8c-44.6,162.7,31.2,352.2,167.2,421.3c100.3,51.3,338.8,44.6,434.7-13.4c98.1-55.7,173.9-169.4,191.7-280.9c8.9-49,31.2-95.8,55.7-107c22.3-13.4,153.8-22.3,294.2-22.3c305.4,0,318.7,6.7,294.2,189.5c-40.1,323.2-267.5,566.2-635.3,682.1l-122.6,37.9l-6.7,196.2c-4.5,153.8-13.4,205-42.3,227.3C5394.6,3787.3,5057.9,3780.6,5013.4,3736.1z"/><path d="M7940.1,2895.7c-37.9-29-802.4-1181.4-829.2-1250.5c-11.2-24.5-2.2-62.4,17.8-93.6c33.4-51.3,44.6-53.5,305.4-53.5h269.7l-15.6-120.4c-6.7-64.6-37.9-207.3-69.1-314.3C7414.1,356.8,6912.5-236.1,6237.1-566C5292-1027.4,4186.4-882.5,3375-191.5c-178.3,151.6-407.9,416.8-499.3,577.3c-26.8,46.8-55.7,86.9-64.7,86.9c-37.9,0-153.8-193.9-187.2-309.8c-82.5-276.4,6.7-559.5,240.7-782.4c405.7-385.6,958.5-670.9,1558.1-806.9c309.8-69.1,991.9-73.6,1290.6-11.2c686.5,149.3,1228.2,439.1,1705.2,918.4c481.5,479.2,780.2,1045.4,905,1707.4c26.8,140.4,51.3,267.5,55.7,283.1c4.5,20.1,82.5,26.8,285.3,26.8c292,0,347.7,17.8,347.7,107c0,44.6-784.6,1250.5-840.3,1292.8C8125.1,2931.4,7986.9,2931.4,7940.1,2895.7z"/><path d="M3482-1892.3c-142.7-22.3-367.8-115.9-682.1-285.3L2528-2324.7l-2.2-1058.8v-1058.8l485.9-107l483.7-104.8l916.1-37.9c1208.1-49,1049.9-80.2,2093.1,430.2l802.5,394.5l722.2,514.9c396.8,283.1,735.6,537.2,753.4,566.2c53.5,75.8,62.4,231.8,20,312.1c-42.3,80.3-140.4,156-229.6,173.9c-86.9,17.8-265.2-62.4-1058.8-472.6c-365.5-189.5-702.1-358.9-746.7-376.7c-46.8-17.8-374.5-100.3-731.1-180.5c-795.8-180.6-862.6-182.8-1326.3-64.7c-178.3,44.6-345.5,95.8-372.3,113.7c-60.2,37.9-66.9,102.5-15.6,142.7c26.7,24.5,93.6,15.6,383.4-51.3c198.4-46.8,407.9-82.5,481.5-82.5c138.2,0,1297.3,289.8,1386.4,345.5c127.1,80.3,160.5,352.2,64.7,514.9c-120.4,205-267.5,236.3-713.3,153.8c-171.6-31.2-425.7-73.5-566.2-93.6l-256.3-37.9l-200.6,73.6c-704.4,254.1-1150.2,407.9-1228.2,423.5C3624.7-1883.3,3540-1883.3,3482-1892.3z"/><path d="M1083.6-1912.3c-26.7-11.1-57.9-40.1-71.3-64.6c-17.8-29-24.5-474.8-24.5-1368.6c0-1272.8,2.2-1328.5,42.3-1377.5c42.3-53.5,46.8-53.5,568.4-60.2l526.1-6.7l55.7,55.7l55.7,55.7V-3330v1348.6l-58,44.6c-55.7,44.6-86.9,46.8-552.8,44.6C1355.5-1892.3,1110.3-1901.2,1083.6-1912.3z M1774.6-2338.1c42.4-53.5,51.3-178.3,13.4-247.4c-13.4-24.5-58-57.9-100.3-75.8c-107-44.6-220.7,2.2-265.3,113.7c-31.2,69.1-31.2,86.9-2.2,156C1480.4-2248.9,1676.5-2219.9,1774.6-2338.1z"/></g></g>
</svg>